# xmcd
#
# Track frame offsets:
#	150
#	12323
#	29692
#	46379
#	88294
#	111690
#	129029
#	144821
#	158250
#	174197
#
# Disc length: 2564 seconds
#
# Revision: 2
# Processed by: cddbd v1.4b41PL1 Copyright (c) Steve Scherf et al.
# Submitted via: EZCDDA 4.3.2
#
DISCID=770a020a
DTITLE=Varios - 1ª Semana de música na rúa
DYEAR=1900
DGENRE=
TTITLE0=Understatement
TTITLE1=You´ll be taken aback
TTITLE2=Doble tempo
TTITLE3=Very metal
TTITLE4=O himno
TTITLE5=Devil´s blues
TTITLE6=Cold
TTITLE7=Van de quejas
TTITLE8=Somebody loves me
TTITLE9=Oh! Lady, be good
EXTD=
EXTT0=
EXTT1=
EXTT2=
EXTT3=
EXTT4=
EXTT5=
EXTT6=
EXTT7=
EXTT8=
EXTT9=
PLAYORDER=
